solid CATIA STL
  facet normal  -0.000000e+000  0.000000e+000  1.000000e+000
    outer loop
      vertex  5.000000e+000  1.900000e+001 -2.500000e+001
      vertex -5.000000e+000  1.900000e+001 -2.500000e+001
      vertex  5.000000e+000 -1.900000e+001 -2.500000e+001
    endloop
  endfacet
  facet normal  0.000000e+000  0.000000e+000  1.000000e+000
    outer loop
      vertex  5.000000e+000 -1.900000e+001 -2.500000e+001
      vertex -5.000000e+000  1.900000e+001 -2.500000e+001
      vertex -5.000000e+000 -1.900000e+001 -2.500000e+001
    endloop
  endfacet
  facet normal  0.000000e+000  1.000000e+000  0.000000e+000
    outer loop
      vertex -5.000000e+000 -2.500000e+001  1.900000e+001
      vertex  5.000000e+000 -2.500000e+001  1.900000e+001
      vertex -5.000000e+000 -2.500000e+001 -1.900000e+001
    endloop
  endfacet
  facet normal  0.000000e+000  1.000000e+000  0.000000e+000
    outer loop
      vertex -5.000000e+000 -2.500000e+001 -1.900000e+001
      vertex  5.000000e+000 -2.500000e+001  1.900000e+001
      vertex  5.000000e+000 -2.500000e+001 -1.900000e+001
    endloop
  endfacet
  facet normal -1.000000e+000  0.000000e+000  -0.000000e+000
    outer loop
      vertex -5.000000e+000 -4.000000e+001 -3.400000e+001
      vertex -5.000000e+000 -2.500000e+001  1.900000e+001
      vertex -5.000000e+000 -2.500000e+001 -1.900000e+001
    endloop
  endfacet
  facet normal -1.000000e+000  0.000000e+000  -0.000000e+000
    outer loop
      vertex -5.000000e+000 -4.000000e+001 -3.400000e+001
      vertex -5.000000e+000 -2.500000e+001 -1.900000e+001
      vertex -5.000000e+000 -2.324264e+001 -2.324264e+001
    endloop
  endfacet
  facet normal -1.000000e+000  0.000000e+000  -0.000000e+000
    outer loop
      vertex -5.000000e+000 -4.000000e+001 -3.400000e+001
      vertex -5.000000e+000 -2.324264e+001 -2.324264e+001
      vertex -5.000000e+000 -1.900000e+001 -2.500000e+001
    endloop
  endfacet
  facet normal -1.000000e+000  -0.000000e+000  0.000000e+000
    outer loop
      vertex -5.000000e+000 -4.000000e+001  3.400000e+001
      vertex -5.000000e+000 -1.900000e+001  2.500000e+001
      vertex -5.000000e+000 -2.324264e+001  2.324264e+001
    endloop
  endfacet
  facet normal -1.000000e+000  -0.000000e+000  0.000000e+000
    outer loop
      vertex -5.000000e+000 -4.000000e+001  3.400000e+001
      vertex -5.000000e+000 -2.324264e+001  2.324264e+001
      vertex -5.000000e+000 -2.500000e+001  1.900000e+001
    endloop
  endfacet
  facet normal -1.000000e+000  -0.000000e+000  0.000000e+000
    outer loop
      vertex -5.000000e+000 -4.000000e+001  3.400000e+001
      vertex -5.000000e+000 -2.500000e+001  1.900000e+001
      vertex -5.000000e+000 -4.000000e+001 -3.400000e+001
    endloop
  endfacet
  facet normal -1.000000e+000  0.000000e+000  0.000000e+000
    outer loop
      vertex -5.000000e+000  4.000000e+001 -3.400000e+001
      vertex -5.000000e+000  1.900000e+001 -2.500000e+001
      vertex -5.000000e+000  2.324264e+001 -2.324264e+001
    endloop
  endfacet
  facet normal -1.000000e+000  0.000000e+000  0.000000e+000
    outer loop
      vertex -5.000000e+000  4.000000e+001 -3.400000e+001
      vertex -5.000000e+000  2.324264e+001 -2.324264e+001
      vertex -5.000000e+000  2.500000e+001 -1.900000e+001
    endloop
  endfacet
  facet normal -1.000000e+000  0.000000e+000  0.000000e+000
    outer loop
      vertex -5.000000e+000  4.000000e+001 -3.400000e+001
      vertex -5.000000e+000  2.500000e+001 -1.900000e+001
      vertex -5.000000e+000  2.500000e+001  1.900000e+001
    endloop
  endfacet
  facet normal -1.000000e+000  0.000000e+000  0.000000e+000
    outer loop
      vertex -5.000000e+000  4.000000e+001  3.400000e+001
      vertex -5.000000e+000  4.000000e+001 -3.400000e+001
      vertex -5.000000e+000  2.500000e+001  1.900000e+001
    endloop
  endfacet
  facet normal -1.000000e+000  0.000000e+000  0.000000e+000
    outer loop
      vertex -5.000000e+000  4.000000e+001  3.400000e+001
      vertex -5.000000e+000  2.500000e+001  1.900000e+001
      vertex -5.000000e+000  2.324264e+001  2.324264e+001
    endloop
  endfacet
  facet normal -1.000000e+000  0.000000e+000  0.000000e+000
    outer loop
      vertex -5.000000e+000  4.000000e+001  3.400000e+001
      vertex -5.000000e+000  2.324264e+001  2.324264e+001
      vertex -5.000000e+000  1.900000e+001  2.500000e+001
    endloop
  endfacet
  facet normal -1.000000e+000  0.000000e+000  0.000000e+000
    outer loop
      vertex -5.000000e+000  4.000000e+001 -3.400000e+001
      vertex -5.000000e+000  3.824264e+001 -3.824264e+001
      vertex -5.000000e+000  1.900000e+001 -2.500000e+001
    endloop
  endfacet
  facet normal -1.000000e+000  0.000000e+000  0.000000e+000
    outer loop
      vertex -5.000000e+000  1.900000e+001 -2.500000e+001
      vertex -5.000000e+000  3.824264e+001 -3.824264e+001
      vertex -5.000000e+000  3.400000e+001 -4.000000e+001
    endloop
  endfacet
  facet normal -1.000000e+000  0.000000e+000  0.000000e+000
    outer loop
      vertex -5.000000e+000  1.900000e+001 -2.500000e+001
      vertex -5.000000e+000  3.400000e+001 -4.000000e+001
      vertex -5.000000e+000 -1.900000e+001 -2.500000e+001
    endloop
  endfacet
  facet normal -1.000000e+000  0.000000e+000  -0.000000e+000
    outer loop
      vertex -5.000000e+000 -1.900000e+001 -2.500000e+001
      vertex -5.000000e+000  3.400000e+001 -4.000000e+001
      vertex -5.000000e+000 -3.400000e+001 -4.000000e+001
    endloop
  endfacet
  facet normal -1.000000e+000  0.000000e+000  0.000000e+000
    outer loop
      vertex -5.000000e+000 -1.900000e+001 -2.500000e+001
      vertex -5.000000e+000 -3.400000e+001 -4.000000e+001
      vertex -5.000000e+000 -4.000000e+001 -3.400000e+001
    endloop
  endfacet
  facet normal -1.000000e+000  0.000000e+000  0.000000e+000
    outer loop
      vertex -5.000000e+000 -4.000000e+001 -3.400000e+001
      vertex -5.000000e+000 -3.400000e+001 -4.000000e+001
      vertex -5.000000e+000 -3.824264e+001 -3.824264e+001
    endloop
  endfacet
  facet normal -1.000000e+000  0.000000e+000  0.000000e+000
    outer loop
      vertex -5.000000e+000  3.824264e+001  3.824264e+001
      vertex -5.000000e+000  4.000000e+001  3.400000e+001
      vertex -5.000000e+000  3.400000e+001  4.000000e+001
    endloop
  endfacet
  facet normal -1.000000e+000  0.000000e+000  -0.000000e+000
    outer loop
      vertex -5.000000e+000  3.400000e+001  4.000000e+001
      vertex -5.000000e+000  4.000000e+001  3.400000e+001
      vertex -5.000000e+000  1.900000e+001  2.500000e+001
    endloop
  endfacet
  facet normal -1.000000e+000  0.000000e+000  0.000000e+000
    outer loop
      vertex -5.000000e+000  3.400000e+001  4.000000e+001
      vertex -5.000000e+000  1.900000e+001  2.500000e+001
      vertex -5.000000e+000 -3.400000e+001  4.000000e+001
    endloop
  endfacet
  facet normal -1.000000e+000  0.000000e+000  0.000000e+000
    outer loop
      vertex -5.000000e+000 -3.400000e+001  4.000000e+001
      vertex -5.000000e+000  1.900000e+001  2.500000e+001
      vertex -5.000000e+000 -1.900000e+001  2.500000e+001
    endloop
  endfacet
  facet normal -1.000000e+000  0.000000e+000  0.000000e+000
    outer loop
      vertex -5.000000e+000 -3.400000e+001  4.000000e+001
      vertex -5.000000e+000 -1.900000e+001  2.500000e+001
      vertex -5.000000e+000 -3.824264e+001  3.824264e+001
    endloop
  endfacet
  facet normal -1.000000e+000  0.000000e+000  -0.000000e+000
    outer loop
      vertex -5.000000e+000 -3.824264e+001  3.824264e+001
      vertex -5.000000e+000 -1.900000e+001  2.500000e+001
      vertex -5.000000e+000 -4.000000e+001  3.400000e+001
    endloop
  endfacet
  facet normal  1.000000e+000  0.000000e+000  0.000000e+000
    outer loop
      vertex  5.000000e+000 -4.000000e+001 -3.400000e+001
      vertex  5.000000e+000 -1.900000e+001 -2.500000e+001
      vertex  5.000000e+000 -2.324264e+001 -2.324264e+001
    endloop
  endfacet
  facet normal  1.000000e+000  0.000000e+000  0.000000e+000
    outer loop
      vertex  5.000000e+000 -4.000000e+001 -3.400000e+001
      vertex  5.000000e+000 -2.324264e+001 -2.324264e+001
      vertex  5.000000e+000 -2.500000e+001 -1.900000e+001
    endloop
  endfacet
  facet normal  1.000000e+000  0.000000e+000  -0.000000e+000
    outer loop
      vertex  5.000000e+000 -4.000000e+001 -3.400000e+001
      vertex  5.000000e+000 -2.500000e+001 -1.900000e+001
      vertex  5.000000e+000 -2.500000e+001  1.900000e+001
    endloop
  endfacet
  facet normal  1.000000e+000  0.000000e+000  0.000000e+000
    outer loop
      vertex  5.000000e+000 -4.000000e+001  3.400000e+001
      vertex  5.000000e+000 -4.000000e+001 -3.400000e+001
      vertex  5.000000e+000 -2.500000e+001  1.900000e+001
    endloop
  endfacet
  facet normal  1.000000e+000  0.000000e+000  -0.000000e+000
    outer loop
      vertex  5.000000e+000 -4.000000e+001  3.400000e+001
      vertex  5.000000e+000 -2.500000e+001  1.900000e+001
      vertex  5.000000e+000 -2.324264e+001  2.324264e+001
    endloop
  endfacet
  facet normal  1.000000e+000  0.000000e+000  -0.000000e+000
    outer loop
      vertex  5.000000e+000 -4.000000e+001  3.400000e+001
      vertex  5.000000e+000 -2.324264e+001  2.324264e+001
      vertex  5.000000e+000 -1.900000e+001  2.500000e+001
    endloop
  endfacet
  facet normal  1.000000e+000  0.000000e+000  0.000000e+000
    outer loop
      vertex  5.000000e+000  4.000000e+001 -3.400000e+001
      vertex  5.000000e+000  2.500000e+001  1.900000e+001
      vertex  5.000000e+000  2.500000e+001 -1.900000e+001
    endloop
  endfacet
  facet normal  1.000000e+000  0.000000e+000  0.000000e+000
    outer loop
      vertex  5.000000e+000  4.000000e+001 -3.400000e+001
      vertex  5.000000e+000  2.500000e+001 -1.900000e+001
      vertex  5.000000e+000  2.324264e+001 -2.324264e+001
    endloop
  endfacet
  facet normal  1.000000e+000  0.000000e+000  0.000000e+000
    outer loop
      vertex  5.000000e+000  4.000000e+001 -3.400000e+001
      vertex  5.000000e+000  2.324264e+001 -2.324264e+001
      vertex  5.000000e+000  1.900000e+001 -2.500000e+001
    endloop
  endfacet
  facet normal  1.000000e+000  -0.000000e+000  0.000000e+000
    outer loop
      vertex  5.000000e+000  4.000000e+001  3.400000e+001
      vertex  5.000000e+000  1.900000e+001  2.500000e+001
      vertex  5.000000e+000  2.324264e+001  2.324264e+001
    endloop
  endfacet
  facet normal  1.000000e+000  -0.000000e+000  0.000000e+000
    outer loop
      vertex  5.000000e+000  4.000000e+001  3.400000e+001
      vertex  5.000000e+000  2.324264e+001  2.324264e+001
      vertex  5.000000e+000  2.500000e+001  1.900000e+001
    endloop
  endfacet
  facet normal  1.000000e+000  -0.000000e+000  0.000000e+000
    outer loop
      vertex  5.000000e+000  4.000000e+001  3.400000e+001
      vertex  5.000000e+000  2.500000e+001  1.900000e+001
      vertex  5.000000e+000  4.000000e+001 -3.400000e+001
    endloop
  endfacet
  facet normal  1.000000e+000  0.000000e+000  0.000000e+000
    outer loop
      vertex  5.000000e+000  3.824264e+001 -3.824264e+001
      vertex  5.000000e+000  4.000000e+001 -3.400000e+001
      vertex  5.000000e+000  3.400000e+001 -4.000000e+001
    endloop
  endfacet
  facet normal  1.000000e+000  0.000000e+000  -0.000000e+000
    outer loop
      vertex  5.000000e+000  3.400000e+001 -4.000000e+001
      vertex  5.000000e+000  4.000000e+001 -3.400000e+001
      vertex  5.000000e+000  1.900000e+001 -2.500000e+001
    endloop
  endfacet
  facet normal  1.000000e+000  0.000000e+000  0.000000e+000
    outer loop
      vertex  5.000000e+000  3.400000e+001 -4.000000e+001
      vertex  5.000000e+000  1.900000e+001 -2.500000e+001
      vertex  5.000000e+000 -3.400000e+001 -4.000000e+001
    endloop
  endfacet
  facet normal  1.000000e+000  0.000000e+000  0.000000e+000
    outer loop
      vertex  5.000000e+000 -3.400000e+001 -4.000000e+001
      vertex  5.000000e+000  1.900000e+001 -2.500000e+001
      vertex  5.000000e+000 -1.900000e+001 -2.500000e+001
    endloop
  endfacet
  facet normal  1.000000e+000  0.000000e+000  0.000000e+000
    outer loop
      vertex  5.000000e+000 -3.400000e+001 -4.000000e+001
      vertex  5.000000e+000 -1.900000e+001 -2.500000e+001
      vertex  5.000000e+000 -3.824264e+001 -3.824264e+001
    endloop
  endfacet
  facet normal  1.000000e+000  0.000000e+000  -0.000000e+000
    outer loop
      vertex  5.000000e+000 -3.824264e+001 -3.824264e+001
      vertex  5.000000e+000 -1.900000e+001 -2.500000e+001
      vertex  5.000000e+000 -4.000000e+001 -3.400000e+001
    endloop
  endfacet
  facet normal  1.000000e+000  0.000000e+000  0.000000e+000
    outer loop
      vertex  5.000000e+000  4.000000e+001  3.400000e+001
      vertex  5.000000e+000  3.824264e+001  3.824264e+001
      vertex  5.000000e+000  1.900000e+001  2.500000e+001
    endloop
  endfacet
  facet normal  1.000000e+000  0.000000e+000  0.000000e+000
    outer loop
      vertex  5.000000e+000  1.900000e+001  2.500000e+001
      vertex  5.000000e+000  3.824264e+001  3.824264e+001
      vertex  5.000000e+000  3.400000e+001  4.000000e+001
    endloop
  endfacet
  facet normal  1.000000e+000  0.000000e+000  0.000000e+000
    outer loop
      vertex  5.000000e+000  1.900000e+001  2.500000e+001
      vertex  5.000000e+000  3.400000e+001  4.000000e+001
      vertex  5.000000e+000 -1.900000e+001  2.500000e+001
    endloop
  endfacet
  facet normal  1.000000e+000  0.000000e+000  -0.000000e+000
    outer loop
      vertex  5.000000e+000 -1.900000e+001  2.500000e+001
      vertex  5.000000e+000  3.400000e+001  4.000000e+001
      vertex  5.000000e+000 -3.400000e+001  4.000000e+001
    endloop
  endfacet
  facet normal  1.000000e+000  0.000000e+000  0.000000e+000
    outer loop
      vertex  5.000000e+000 -1.900000e+001  2.500000e+001
      vertex  5.000000e+000 -3.400000e+001  4.000000e+001
      vertex  5.000000e+000 -4.000000e+001  3.400000e+001
    endloop
  endfacet
  facet normal  1.000000e+000  0.000000e+000  0.000000e+000
    outer loop
      vertex  5.000000e+000 -4.000000e+001  3.400000e+001
      vertex  5.000000e+000 -3.400000e+001  4.000000e+001
      vertex  5.000000e+000 -3.824264e+001  3.824264e+001
    endloop
  endfacet
  facet normal  -0.000000e+000  3.826832e-001  9.238796e-001
    outer loop
      vertex  5.000000e+000 -1.900000e+001 -2.500000e+001
      vertex -5.000000e+000 -1.900000e+001 -2.500000e+001
      vertex  5.000000e+000 -2.324264e+001 -2.324264e+001
    endloop
  endfacet
  facet normal  0.000000e+000  3.826832e-001  9.238796e-001
    outer loop
      vertex  5.000000e+000 -2.324264e+001 -2.324264e+001
      vertex -5.000000e+000 -1.900000e+001 -2.500000e+001
      vertex -5.000000e+000 -2.324264e+001 -2.324264e+001
    endloop
  endfacet
  facet normal  -0.000000e+000  9.238796e-001  3.826832e-001
    outer loop
      vertex  5.000000e+000 -2.324264e+001 -2.324264e+001
      vertex -5.000000e+000 -2.324264e+001 -2.324264e+001
      vertex  5.000000e+000 -2.500000e+001 -1.900000e+001
    endloop
  endfacet
  facet normal  0.000000e+000  9.238796e-001  3.826832e-001
    outer loop
      vertex  5.000000e+000 -2.500000e+001 -1.900000e+001
      vertex -5.000000e+000 -2.324264e+001 -2.324264e+001
      vertex -5.000000e+000 -2.500000e+001 -1.900000e+001
    endloop
  endfacet
  facet normal  0.000000e+000 -1.000000e+000  0.000000e+000
    outer loop
      vertex -5.000000e+000  2.500000e+001 -1.900000e+001
      vertex  5.000000e+000  2.500000e+001 -1.900000e+001
      vertex -5.000000e+000  2.500000e+001  1.900000e+001
    endloop
  endfacet
  facet normal  0.000000e+000 -1.000000e+000  0.000000e+000
    outer loop
      vertex -5.000000e+000  2.500000e+001  1.900000e+001
      vertex  5.000000e+000  2.500000e+001 -1.900000e+001
      vertex  5.000000e+000  2.500000e+001  1.900000e+001
    endloop
  endfacet
  facet normal  0.000000e+000 -9.238796e-001  3.826832e-001
    outer loop
      vertex  5.000000e+000  2.500000e+001 -1.900000e+001
      vertex -5.000000e+000  2.500000e+001 -1.900000e+001
      vertex  5.000000e+000  2.324264e+001 -2.324264e+001
    endloop
  endfacet
  facet normal  0.000000e+000 -9.238796e-001  3.826832e-001
    outer loop
      vertex  5.000000e+000  2.324264e+001 -2.324264e+001
      vertex -5.000000e+000  2.500000e+001 -1.900000e+001
      vertex -5.000000e+000  2.324264e+001 -2.324264e+001
    endloop
  endfacet
  facet normal  0.000000e+000 -3.826832e-001  9.238796e-001
    outer loop
      vertex  5.000000e+000  2.324264e+001 -2.324264e+001
      vertex -5.000000e+000  2.324264e+001 -2.324264e+001
      vertex  5.000000e+000  1.900000e+001 -2.500000e+001
    endloop
  endfacet
  facet normal  0.000000e+000 -3.826832e-001  9.238796e-001
    outer loop
      vertex  5.000000e+000  1.900000e+001 -2.500000e+001
      vertex -5.000000e+000  2.324264e+001 -2.324264e+001
      vertex -5.000000e+000  1.900000e+001 -2.500000e+001
    endloop
  endfacet
  facet normal  0.000000e+000  0.000000e+000 -1.000000e+000
    outer loop
      vertex  5.000000e+000 -1.900000e+001  2.500000e+001
      vertex -5.000000e+000 -1.900000e+001  2.500000e+001
      vertex  5.000000e+000  1.900000e+001  2.500000e+001
    endloop
  endfacet
  facet normal  -0.000000e+000  0.000000e+000 -1.000000e+000
    outer loop
      vertex  5.000000e+000  1.900000e+001  2.500000e+001
      vertex -5.000000e+000 -1.900000e+001  2.500000e+001
      vertex -5.000000e+000  1.900000e+001  2.500000e+001
    endloop
  endfacet
  facet normal  0.000000e+000 -3.826832e-001 -9.238796e-001
    outer loop
      vertex  5.000000e+000  1.900000e+001  2.500000e+001
      vertex -5.000000e+000  1.900000e+001  2.500000e+001
      vertex  5.000000e+000  2.324264e+001  2.324264e+001
    endloop
  endfacet
  facet normal  -0.000000e+000 -3.826832e-001 -9.238796e-001
    outer loop
      vertex  5.000000e+000  2.324264e+001  2.324264e+001
      vertex -5.000000e+000  1.900000e+001  2.500000e+001
      vertex -5.000000e+000  2.324264e+001  2.324264e+001
    endloop
  endfacet
  facet normal  0.000000e+000 -9.238796e-001 -3.826832e-001
    outer loop
      vertex  5.000000e+000  2.324264e+001  2.324264e+001
      vertex -5.000000e+000  2.324264e+001  2.324264e+001
      vertex  5.000000e+000  2.500000e+001  1.900000e+001
    endloop
  endfacet
  facet normal  -0.000000e+000 -9.238796e-001 -3.826832e-001
    outer loop
      vertex  5.000000e+000  2.500000e+001  1.900000e+001
      vertex -5.000000e+000  2.324264e+001  2.324264e+001
      vertex -5.000000e+000  2.500000e+001  1.900000e+001
    endloop
  endfacet
  facet normal  0.000000e+000  9.238796e-001 -3.826832e-001
    outer loop
      vertex  5.000000e+000 -2.500000e+001  1.900000e+001
      vertex -5.000000e+000 -2.500000e+001  1.900000e+001
      vertex  5.000000e+000 -2.324264e+001  2.324264e+001
    endloop
  endfacet
  facet normal  0.000000e+000  9.238796e-001 -3.826832e-001
    outer loop
      vertex  5.000000e+000 -2.324264e+001  2.324264e+001
      vertex -5.000000e+000 -2.500000e+001  1.900000e+001
      vertex -5.000000e+000 -2.324264e+001  2.324264e+001
    endloop
  endfacet
  facet normal  0.000000e+000  3.826832e-001 -9.238796e-001
    outer loop
      vertex  5.000000e+000 -2.324264e+001  2.324264e+001
      vertex -5.000000e+000 -2.324264e+001  2.324264e+001
      vertex  5.000000e+000 -1.900000e+001  2.500000e+001
    endloop
  endfacet
  facet normal  0.000000e+000  3.826832e-001 -9.238796e-001
    outer loop
      vertex  5.000000e+000 -1.900000e+001  2.500000e+001
      vertex -5.000000e+000 -2.324264e+001  2.324264e+001
      vertex -5.000000e+000 -1.900000e+001  2.500000e+001
    endloop
  endfacet
  facet normal  -0.000000e+000  0.000000e+000 -1.000000e+000
    outer loop
      vertex -5.000000e+000  3.400000e+001 -4.000000e+001
      vertex  5.000000e+000  3.400000e+001 -4.000000e+001
      vertex -5.000000e+000 -3.400000e+001 -4.000000e+001
    endloop
  endfacet
  facet normal  0.000000e+000  0.000000e+000 -1.000000e+000
    outer loop
      vertex -5.000000e+000 -3.400000e+001 -4.000000e+001
      vertex  5.000000e+000  3.400000e+001 -4.000000e+001
      vertex  5.000000e+000 -3.400000e+001 -4.000000e+001
    endloop
  endfacet
  facet normal  0.000000e+000  1.000000e+000  0.000000e+000
    outer loop
      vertex  5.000000e+000  4.000000e+001 -3.400000e+001
      vertex -5.000000e+000  4.000000e+001 -3.400000e+001
      vertex  5.000000e+000  4.000000e+001  3.400000e+001
    endloop
  endfacet
  facet normal  0.000000e+000  1.000000e+000  0.000000e+000
    outer loop
      vertex  5.000000e+000  4.000000e+001  3.400000e+001
      vertex -5.000000e+000  4.000000e+001 -3.400000e+001
      vertex -5.000000e+000  4.000000e+001  3.400000e+001
    endloop
  endfacet
  facet normal  0.000000e+000  9.238796e-001 -3.826832e-001
    outer loop
      vertex -5.000000e+000  4.000000e+001 -3.400000e+001
      vertex  5.000000e+000  4.000000e+001 -3.400000e+001
      vertex -5.000000e+000  3.824264e+001 -3.824264e+001
    endloop
  endfacet
  facet normal  0.000000e+000  9.238796e-001 -3.826832e-001
    outer loop
      vertex -5.000000e+000  3.824264e+001 -3.824264e+001
      vertex  5.000000e+000  4.000000e+001 -3.400000e+001
      vertex  5.000000e+000  3.824264e+001 -3.824264e+001
    endloop
  endfacet
  facet normal  0.000000e+000  3.826832e-001 -9.238796e-001
    outer loop
      vertex -5.000000e+000  3.824264e+001 -3.824264e+001
      vertex  5.000000e+000  3.824264e+001 -3.824264e+001
      vertex -5.000000e+000  3.400000e+001 -4.000000e+001
    endloop
  endfacet
  facet normal  0.000000e+000  3.826832e-001 -9.238796e-001
    outer loop
      vertex -5.000000e+000  3.400000e+001 -4.000000e+001
      vertex  5.000000e+000  3.824264e+001 -3.824264e+001
      vertex  5.000000e+000  3.400000e+001 -4.000000e+001
    endloop
  endfacet
  facet normal  0.000000e+000 -1.000000e+000  0.000000e+000
    outer loop
      vertex  5.000000e+000 -4.000000e+001  3.400000e+001
      vertex -5.000000e+000 -4.000000e+001  3.400000e+001
      vertex  5.000000e+000 -4.000000e+001 -3.400000e+001
    endloop
  endfacet
  facet normal  0.000000e+000 -1.000000e+000  0.000000e+000
    outer loop
      vertex  5.000000e+000 -4.000000e+001 -3.400000e+001
      vertex -5.000000e+000 -4.000000e+001  3.400000e+001
      vertex -5.000000e+000 -4.000000e+001 -3.400000e+001
    endloop
  endfacet
  facet normal  -0.000000e+000 -3.826832e-001 -9.238796e-001
    outer loop
      vertex -5.000000e+000 -3.400000e+001 -4.000000e+001
      vertex  5.000000e+000 -3.400000e+001 -4.000000e+001
      vertex -5.000000e+000 -3.824264e+001 -3.824264e+001
    endloop
  endfacet
  facet normal  0.000000e+000 -3.826832e-001 -9.238796e-001
    outer loop
      vertex -5.000000e+000 -3.824264e+001 -3.824264e+001
      vertex  5.000000e+000 -3.400000e+001 -4.000000e+001
      vertex  5.000000e+000 -3.824264e+001 -3.824264e+001
    endloop
  endfacet
  facet normal  -0.000000e+000 -9.238796e-001 -3.826832e-001
    outer loop
      vertex -5.000000e+000 -3.824264e+001 -3.824264e+001
      vertex  5.000000e+000 -3.824264e+001 -3.824264e+001
      vertex -5.000000e+000 -4.000000e+001 -3.400000e+001
    endloop
  endfacet
  facet normal  0.000000e+000 -9.238796e-001 -3.826832e-001
    outer loop
      vertex -5.000000e+000 -4.000000e+001 -3.400000e+001
      vertex  5.000000e+000 -3.824264e+001 -3.824264e+001
      vertex  5.000000e+000 -4.000000e+001 -3.400000e+001
    endloop
  endfacet
  facet normal  0.000000e+000  0.000000e+000  1.000000e+000
    outer loop
      vertex -5.000000e+000 -3.400000e+001  4.000000e+001
      vertex  5.000000e+000 -3.400000e+001  4.000000e+001
      vertex -5.000000e+000  3.400000e+001  4.000000e+001
    endloop
  endfacet
  facet normal  -0.000000e+000  0.000000e+000  1.000000e+000
    outer loop
      vertex -5.000000e+000  3.400000e+001  4.000000e+001
      vertex  5.000000e+000 -3.400000e+001  4.000000e+001
      vertex  5.000000e+000  3.400000e+001  4.000000e+001
    endloop
  endfacet
  facet normal  0.000000e+000 -9.238796e-001  3.826832e-001
    outer loop
      vertex -5.000000e+000 -4.000000e+001  3.400000e+001
      vertex  5.000000e+000 -4.000000e+001  3.400000e+001
      vertex -5.000000e+000 -3.824264e+001  3.824264e+001
    endloop
  endfacet
  facet normal  0.000000e+000 -9.238796e-001  3.826832e-001
    outer loop
      vertex -5.000000e+000 -3.824264e+001  3.824264e+001
      vertex  5.000000e+000 -4.000000e+001  3.400000e+001
      vertex  5.000000e+000 -3.824264e+001  3.824264e+001
    endloop
  endfacet
  facet normal  0.000000e+000 -3.826832e-001  9.238796e-001
    outer loop
      vertex -5.000000e+000 -3.824264e+001  3.824264e+001
      vertex  5.000000e+000 -3.824264e+001  3.824264e+001
      vertex -5.000000e+000 -3.400000e+001  4.000000e+001
    endloop
  endfacet
  facet normal  0.000000e+000 -3.826832e-001  9.238796e-001
    outer loop
      vertex -5.000000e+000 -3.400000e+001  4.000000e+001
      vertex  5.000000e+000 -3.824264e+001  3.824264e+001
      vertex  5.000000e+000 -3.400000e+001  4.000000e+001
    endloop
  endfacet
  facet normal  0.000000e+000  3.826832e-001  9.238796e-001
    outer loop
      vertex -5.000000e+000  3.400000e+001  4.000000e+001
      vertex  5.000000e+000  3.400000e+001  4.000000e+001
      vertex -5.000000e+000  3.824264e+001  3.824264e+001
    endloop
  endfacet
  facet normal  -0.000000e+000  3.826832e-001  9.238796e-001
    outer loop
      vertex -5.000000e+000  3.824264e+001  3.824264e+001
      vertex  5.000000e+000  3.400000e+001  4.000000e+001
      vertex  5.000000e+000  3.824264e+001  3.824264e+001
    endloop
  endfacet
  facet normal  0.000000e+000  9.238796e-001  3.826832e-001
    outer loop
      vertex -5.000000e+000  3.824264e+001  3.824264e+001
      vertex  5.000000e+000  3.824264e+001  3.824264e+001
      vertex -5.000000e+000  4.000000e+001  3.400000e+001
    endloop
  endfacet
  facet normal  -0.000000e+000  9.238796e-001  3.826832e-001
    outer loop
      vertex -5.000000e+000  4.000000e+001  3.400000e+001
      vertex  5.000000e+000  3.824264e+001  3.824264e+001
      vertex  5.000000e+000  4.000000e+001  3.400000e+001
    endloop
  endfacet
endsolid CATIA STL
