# Blender v2.92.0 OBJ File: ''
# www.blender.org
mtllib Gate_50_curved.mtl
o Gate_50_curved
v -0.050000 0.190000 0.250000
v 0.050000 0.190000 0.250000
v -0.050000 -0.190000 0.250000
v 0.050000 -0.190000 0.250000
v 0.050000 -0.250000 -0.190000
v -0.050000 -0.250000 -0.190000
v 0.050000 -0.250000 0.190000
v -0.050000 -0.250000 0.190000
v 0.050000 -0.400000 0.340000
v 0.050000 -0.232426 0.232426
v 0.050000 -0.400000 -0.340000
v 0.050000 -0.190000 -0.250000
v 0.050000 -0.232426 -0.232426
v 0.050000 0.400000 0.340000
v 0.050000 0.232426 0.232426
v 0.050000 0.250000 0.190000
v 0.050000 0.250000 -0.190000
v 0.050000 0.400000 -0.340000
v 0.050000 0.232426 -0.232426
v 0.050000 0.190000 -0.250000
v 0.050000 0.382426 0.382426
v 0.050000 0.340000 0.400000
v 0.050000 -0.340000 0.400000
v 0.050000 -0.382426 0.382426
v 0.050000 0.382426 -0.382426
v 0.050000 0.340000 -0.400000
v 0.050000 -0.340000 -0.400000
v 0.050000 -0.382426 -0.382426
v -0.050000 -0.400000 0.340000
v -0.050000 -0.232426 0.232426
v -0.050000 -0.400000 -0.340000
v -0.050000 -0.232426 -0.232426
v -0.050000 -0.190000 -0.250000
v -0.050000 0.400000 0.340000
v -0.050000 0.250000 -0.190000
v -0.050000 0.250000 0.190000
v -0.050000 0.232426 0.232426
v -0.050000 0.400000 -0.340000
v -0.050000 0.190000 -0.250000
v -0.050000 0.232426 -0.232426
v -0.050000 0.382426 0.382426
v -0.050000 0.340000 0.400000
v -0.050000 -0.340000 0.400000
v -0.050000 -0.382426 0.382426
v -0.050000 0.382426 -0.382426
v -0.050000 0.340000 -0.400000
v -0.050000 -0.340000 -0.400000
v -0.050000 -0.382426 -0.382426
vn 0.0000 0.0000 -1.0000
vn 0.0000 1.0000 0.0000
vn 1.0000 -0.0000 0.0000
vn -1.0000 0.0000 0.0000
vn 0.0000 0.3827 -0.9239
vn 0.0000 0.9239 -0.3827
vn 0.0000 -1.0000 0.0000
vn 0.0000 -0.9239 -0.3827
vn 0.0000 -0.3827 -0.9239
vn 0.0000 0.0000 1.0000
vn 0.0000 -0.3827 0.9239
vn 0.0000 -0.9239 0.3827
vn 0.0000 0.9239 0.3827
vn 0.0000 0.3827 0.9239
usemtl None
s off
f 1//1 2//1 3//1
f 3//1 2//1 4//1
f 5//2 6//2 7//2
f 7//2 6//2 8//2
f 9//3 5//3 7//3
f 9//3 7//3 10//3
f 9//3 10//3 4//3
f 11//3 12//3 13//3
f 11//3 13//3 5//3
f 11//3 5//3 9//3
f 14//3 2//3 15//3
f 14//3 15//3 16//3
f 14//3 16//3 17//3
f 18//3 14//3 17//3
f 18//3 17//3 19//3
f 18//3 19//3 20//3
f 14//3 21//3 2//3
f 2//3 21//3 22//3
f 2//3 22//3 4//3
f 4//3 22//3 23//3
f 4//3 23//3 9//3
f 9//3 23//3 24//3
f 25//3 18//3 26//3
f 26//3 18//3 20//3
f 26//3 20//3 27//3
f 27//3 20//3 12//3
f 27//3 12//3 28//3
f 28//3 12//3 11//3
f 29//4 3//4 30//4
f 29//4 30//4 8//4
f 29//4 8//4 6//4
f 31//4 29//4 6//4
f 31//4 6//4 32//4
f 31//4 32//4 33//4
f 34//4 35//4 36//4
f 34//4 36//4 37//4
f 34//4 37//4 1//4
f 38//4 39//4 40//4
f 38//4 40//4 35//4
f 38//4 35//4 34//4
f 41//4 34//4 42//4
f 42//4 34//4 1//4
f 42//4 1//4 43//4
f 43//4 1//4 3//4
f 43//4 3//4 44//4
f 44//4 3//4 29//4
f 38//4 45//4 39//4
f 39//4 45//4 46//4
f 39//4 46//4 33//4
f 33//4 46//4 47//4
f 33//4 47//4 31//4
f 31//4 47//4 48//4
f 3//5 4//5 30//5
f 30//5 4//5 10//5
f 30//6 10//6 8//6
f 8//6 10//6 7//6
f 16//7 36//7 17//7
f 17//7 36//7 35//7
f 36//8 16//8 37//8
f 37//8 16//8 15//8
f 37//9 15//9 1//9
f 1//9 15//9 2//9
f 33//10 12//10 39//10
f 39//10 12//10 20//10
f 39//11 20//11 40//11
f 40//11 20//11 19//11
f 40//12 19//12 35//12
f 35//12 19//12 17//12
f 6//13 5//13 32//13
f 32//13 5//13 13//13
f 32//14 13//14 33//14
f 33//14 13//14 12//14
f 22//10 42//10 23//10
f 23//10 42//10 43//10
f 34//2 14//2 38//2
f 38//2 14//2 18//2
f 14//13 34//13 21//13
f 21//13 34//13 41//13
f 21//14 41//14 22//14
f 22//14 41//14 42//14
f 31//7 11//7 29//7
f 29//7 11//7 9//7
f 23//11 43//11 24//11
f 24//11 43//11 44//11
f 24//12 44//12 9//12
f 9//12 44//12 29//12
f 27//1 47//1 26//1
f 26//1 47//1 46//1
f 11//8 31//8 28//8
f 28//8 31//8 48//8
f 28//9 48//9 27//9
f 27//9 48//9 47//9
f 26//5 46//5 25//5
f 25//5 46//5 45//5
f 25//6 45//6 18//6
f 18//6 45//6 38//6
